<svg width="124" height="97" viewBox="0 0 124 97" fill="none" xmlns="http://www.w3.org/2000/svg">
<g filter="url(#filter0_d)">
<path fill-rule="evenodd" clip-rule="evenodd" d="M51.617 55.1539C39.7077 50.8192 31.23 48.1099 25.8532 48.4103C18.96 48.7956 12.5873 52.3896 6.43753 55.2573L4.79719 51.7396L12.8191 47.9989C24.7271 42.4461 32.2009 44.6836 32.2009 44.6836L67.3955 18.005L66.339 15.7392L78.121 10.2452L79.1775 12.5109C87.7963 8.49193 97.0171 4.6039 102.565 16.5009C107.425 26.9234 96.0261 34.4455 96.0261 34.4455L104.267 52.1186C103.165 53.7451 98.8321 57.9632 90.581 61.8107C82.3298 65.6583 76.3132 66.2665 74.359 66.065L73.0697 63.3C69.7482 61.8286 61.584 58.7816 51.617 55.1539ZM69.5086 22.5365L36.5355 46.0006L69.7818 56.2492L61.2578 37.9694L70.9878 25.7087L69.5086 22.5365ZM83.8264 22.4804L80.6656 15.6789C87.221 13.1737 94.7439 8.01068 99.3927 17.9801C102.985 25.6837 94.547 31.2735 94.547 31.2735L91.166 24.023L83.8264 22.4804Z" fill="#FFFEF9"/>
<path d="M73.0697 63.3C69.7482 61.8286 61.584 58.7816 51.617 55.1539C39.7077 50.8192 31.23 48.1099 25.8532 48.4103C18.96 48.7956 12.5873 52.3896 6.43753 55.2573L4.79719 51.7396M73.0697 63.3L74.359 66.065C76.3132 66.2665 82.3298 65.6583 90.581 61.8107C98.8321 57.9632 103.165 53.7451 104.267 52.1186L96.0261 34.4455M73.0697 63.3L69.7818 56.2492M96.0261 34.4455C96.0261 34.4455 107.425 26.9234 102.565 16.5009C97.0171 4.6039 87.7963 8.49193 79.1775 12.5109M96.0261 34.4455L94.547 31.2735M79.1775 12.5109L78.121 10.2452L66.339 15.7392L67.3955 18.005M79.1775 12.5109L80.6656 15.6789M67.3955 18.005L32.2009 44.6836M67.3955 18.005L69.5086 22.5365M32.2009 44.6836C32.2009 44.6836 24.7271 42.4461 12.8191 47.9989M32.2009 44.6836C32.1953 45.0041 32.5749 45.463 33.7042 45.8902C34.8335 46.3173 36.5355 46.0006 36.5355 46.0006M12.8191 47.9989C3.61981 52.2886 10.6392 49.0154 4.79719 51.7396M12.8191 47.9989L4.79719 51.7396M36.5355 46.0006L69.5086 22.5365M36.5355 46.0006L69.7818 56.2492M69.5086 22.5365L70.9878 25.7087M70.9878 25.7087L61.2578 37.9694M70.9878 25.7087C71.4105 26.615 73.2012 26.8832 75.6784 26.2798C78.1556 25.6763 81.7807 23.9859 83.8264 22.4804M61.2578 37.9694L69.7818 56.2492M61.2578 37.9694L91.166 24.023M80.6656 15.6789L83.8264 22.4804M80.6656 15.6789C87.221 13.1737 94.7439 8.01068 99.3927 17.9801C102.985 25.6837 94.547 31.2735 94.547 31.2735M83.8264 22.4804L91.166 24.023M91.166 24.023L94.547 31.2735" stroke="#222222" stroke-width="2" stroke-linejoin="round"/>
</g>
<defs>
<filter id="filter0_d" x="0.670898" y="0.671051" width="122.437" height="95.5269" filterUnits="userSpaceOnUse" color-interpolation-filters="sRGB">
<feFlood flood-opacity="0" result="BackgroundImageFix"/>
<feColorMatrix in="SourceAlpha" type="matrix" values="0 0 0 0 0 0 0 0 0 0 0 0 0 0 0 0 0 0 127 0"/>
<feOffset dx="4" dy="2"/>
<feColorMatrix type="matrix" values="0 0 0 0 0.717647 0 0 0 0 0.67451 0 0 0 0 0.262745 0 0 0 1 0"/>
<feBlend mode="normal" in2="BackgroundImageFix" result="effect1_dropShadow"/>
<feBlend mode="normal" in="SourceGraphic" in2="effect1_dropShadow" result="shape"/>
</filter>
</defs>
</svg>
